<?xml version="1.0" standalone="no"?>
<!DOCTYPE svg PUBLIC "-//W3C//DTD SVG 20010904//EN"
 "http://www.w3.org/TR/2001/REC-SVG-20010904/DTD/svg10.dtd">
<svg version="1.0" xmlns="http://www.w3.org/2000/svg"
 width="195.000000pt" height="155.000000pt" viewBox="0 0 195.000000 155.000000"
 preserveAspectRatio="xMidYMid meet">

<g transform="translate(0.000000,155.000000) scale(0.100000,-0.100000)"
fill="#000000" stroke="none">
<path d="M805 1303 c-106 -22 -198 -75 -285 -162 -90 -92 -134 -170 -155 -277
-22 -115 -18 -121 13 -19 39 126 75 189 158 271 128 128 302 190 467 166 227
-33 416 -205 473 -432 13 -49 15 -89 11 -165 -10 -152 -51 -256 -146 -360 -25
-27 -31 -37 -13 -21 17 17 32 25 32 20 0 -12 -50 -60 -102 -99 -21 -15 -35
-32 -31 -38 4 -6 0 -8 -11 -4 -9 4 -15 3 -12 -2 10 -15 -97 -55 -214 -81 -44
-9 -43 -9 14 -4 136 13 255 71 362 178 126 126 182 283 172 477 -9 155 -62
274 -171 387 -48 48 -78 68 -61 40 5 -9 2 -9 -9 1 -20 16 -23 26 -4 15 9 -6 9
-4 -1 8 -22 27 -158 87 -232 103 -88 18 -163 18 -255 -2z m722 -620 c-2 -21
-4 -6 -4 32 0 39 2 55 4 38 2 -18 2 -50 0 -70z m-22 -140 c-22 -78 -79 -183
-127 -237 -37 -43 -128 -116 -143 -116 -4 0 19 19 51 43 103 76 190 213 216
342 7 32 14 52 16 42 2 -9 -4 -43 -13 -74z"/>
<path d="M983 1111 c-161 -44 -290 -130 -314 -210 -20 -69 -1 -109 102 -216
l90 -93 -57 -33 c-74 -42 -150 -116 -160 -153 -16 -66 45 -119 145 -124 186
-11 261 125 142 260 -17 20 -31 38 -31 41 0 7 116 50 238 87 57 18 102 34 99
36 -4 5 -262 -71 -312 -91 l-36 -16 -56 48 c-109 93 -155 172 -139 239 4 14
25 45 47 68 97 106 359 190 424 136 24 -20 18 -66 -12 -95 -20 -18 -23 -25
-12 -25 28 0 59 44 59 83 0 28 -6 40 -26 53 -37 25 -109 27 -191 5z m-58 -595
c51 -74 53 -126 8 -166 -75 -67 -213 -65 -258 4 -23 35 -14 63 33 109 41 40
162 118 173 111 3 -2 23 -28 44 -58z"/>
<path d="M420 391 c5 -11 15 -23 21 -27 6 -3 3 5 -6 20 -20 30 -30 35 -15 7z"/>
<path d="M450 346 c0 -2 8 -10 18 -17 15 -13 16 -12 3 4 -13 16 -21 21 -21 13z"/>
<path d="M559 238 c33 -36 122 -89 171 -103 19 -5 21 -4 10 4 -13 10 -13 11 0
11 13 0 13 1 0 10 -8 5 -19 10 -25 10 -5 0 -3 -5 5 -10 11 -7 11 -10 2 -10
-18 0 -75 30 -69 37 3 2 15 0 26 -7 42 -22 20 -1 -24 24 -25 13 -43 21 -40 15
13 -20 -16 -7 -52 23 l-38 32 34 -36z m86 -46 c-3 -3 -11 0 -18 7 -9 10 -8 11
6 5 10 -3 15 -9 12 -12z"/>
</g>
</svg>
